<?xml version="1.0" standalone="no"?>
<!DOCTYPE svg PUBLIC "-//W3C//DTD SVG 1.1//EN" "http://www.w3.org/Graphics/SVG/1.1/DTD/svg11.dtd" >
<svg xmlns="http://www.w3.org/2000/svg" xmlns:xlink="http://www.w3.org/1999/xlink" version="1.1">
<metadata>
Created by FontForge 20170731 at Wed Feb  1 14:33:07 2017
 By Aleksey,,,
Copyright (c) 2017 by Cagri Kara. All rights reserved.
</metadata>
<defs>
<font id="Womby-Regular" horiz-adv-x="755" >
  <font-face 
    font-family="Womby"
    font-weight="400"
    font-stretch="normal"
    units-per-em="1000"
    panose-1="0 0 5 0 0 0 0 0 0 0"
    ascent="800"
    descent="-200"
    x-height="699"
    cap-height="707"
    bbox="-20 -200 765 800"
    underline-thickness="50"
    underline-position="-150"
    unicode-range="U+0020-2192"
  />
<missing-glyph horiz-adv-x="500" 
d="M410 800v-1000h-317v1000h317zM333 118h-166v-113h166v113zM300 85v-47h-100v47h100zM333 291h-100v-56h34v23h33v-47h-100v80h-33v-113h166v113zM333 413h-33v-66h-133v-34h166v100zM333 473h-166v-33h66v-37h-66v-33h100v70h66v33zM233 570v-36h-33v36h33zM267 604
h-100v-104h166v34h-66v70zM333 733h-165v-33h65v-37h-66v-33h166v33h-66v37h66v33zM333 -18h-166v-33h70l-70 -47v-33h166v33h-102l70 47h32v33z" />
    <glyph glyph-name=".notdef" horiz-adv-x="500" 
d="M410 800v-1000h-317v1000h317zM333 118h-166v-113h166v113zM300 85v-47h-100v47h100zM333 291h-100v-56h34v23h33v-47h-100v80h-33v-113h166v113zM333 413h-33v-66h-133v-34h166v100zM333 473h-166v-33h66v-37h-66v-33h100v70h66v33zM233 570v-36h-33v36h33zM267 604
h-100v-104h166v34h-66v70zM333 733h-165v-33h65v-37h-66v-33h166v33h-66v37h66v33zM333 -18h-166v-33h70l-70 -47v-33h166v33h-102l70 47h32v33z" />
    <glyph glyph-name=".null" horiz-adv-x="0" 
 />
    <glyph glyph-name="nonmarkingreturn" horiz-adv-x="333" 
 />
    <glyph glyph-name="space" unicode=" " horiz-adv-x="300" 
 />
    <glyph glyph-name="exclam" unicode="!" horiz-adv-x="275" 
d="M40 700h195l-10 -492h-175zM200 18.5q-26 -25.5 -63 -25.5t-63 25.5t-26 62.5t26 63t63 26t63 -26t26 -63t-26 -62.5z" />
    <glyph glyph-name="numbersign" unicode="#" horiz-adv-x="791" 
d="M751 416h-134l-37 -132h98v-125h-134l-45 -159h-143l45 159h-117l-45 -160h-144l45 160h-100v125h135l38 132h-100v126h135l46 165h144l-46 -165h116l47 165h144l-47 -165h99v-126zM436 284l37 132h-117l-37 -132h117z" />
    <glyph glyph-name="dollar" unicode="$" horiz-adv-x="536" 
d="M167 201q0 -22 13 -41.5t34 -30.5v168q-45 11 -74.5 22t-52.5 31q-1 0 -3 2q-32 29 -49.5 66.5t-17.5 79.5q0 50 25.5 94t70.5 74t101 40v54h98v-54q56 -9 101.5 -39t71.5 -74t26 -95h-149q0 23 -13.5 43t-36.5 31v-169q43 -11 72.5 -21.5t52.5 -28.5l4 -3v-1
q33 -29 51.5 -67t18.5 -81q0 -51 -26 -95t-71.5 -74t-101.5 -39v-53h-98v53q-56 10 -101 40t-70.5 74t-25.5 94h150zM196 443q3 -3 18 -10v137q-22 -12 -36 -31t-14 -41q0 -36 32 -55zM350.5 158.5q14.5 19.5 14.5 42.5q0 36 -32 54q-9 8 -21 12v-140q24 12 38.5 31.5z" />
    <glyph glyph-name="percent" unicode="%" horiz-adv-x="764" 
d="M115.5 680.5q-34.5 -19.5 -55 -53.5t-20.5 -75q0 -40 20.5 -74t55 -53.5t74.5 -19.5t74.5 19.5t55 53t20.5 74.5t-20.5 75t-55 53.5t-74.5 19.5t-74.5 -19.5zM82 5h154l445 694h-154zM154.5 514.5q-14.5 14.5 -14.5 37.5t14.5 37.5t35.5 14.5t35 -14.5t14 -37.5
t-14 -37.5t-35 -14.5t-35.5 14.5zM499.5 274.5q-34.5 -19.5 -55 -53t-20.5 -74.5q0 -40 20.5 -74t55 -53.5t74.5 -19.5t74.5 19.5t55 53t20.5 74.5t-20.5 74.5t-55 53t-74.5 19.5t-74.5 -19.5zM538.5 108.5q-14.5 14.5 -14.5 38.5q0 22 14.5 36.5t35.5 14.5t35 -14.5
t14 -36.5q0 -23 -14 -38t-35 -15t-35.5 14.5z" />
    <glyph glyph-name="ampersand" unicode="&#x26;" horiz-adv-x="655" 
d="M655 0h-179l-59 61q-32 -31 -53 -41v0q-50 -33 -121 -33q-61 0 -112 29.5t-81 80t-30 110.5l1 21q13 89 100 139l10 6l-9 9l-7 7l-13 15q-38 52 -38 116q0 53 26.5 98t71.5 71.5t98 26.5t98 -26.5t71.5 -71.5t26.5 -98q0 -45 -21 -87q-11 -23 -32 -46q-6 -7 -13 -13
l-15 -12q-19 -14 -34 -20l9 -11l72 -78v0l28 37l32 42l15 -12l81 -63q-5 -8 -25.5 -35.5t-46.5 -59.5zM213.5 574q-19.5 -19 -19.5 -46q0 -18 9 -32v0q8 -17 39 -46l1 -1l10 -9q20 8 40 23l7 7q20 20 24 43v1q2 8 2 14q0 27 -19.5 46t-46.5 19t-46.5 -19zM183 146.5
q25 -24.5 61 -24.5q22 0 43.5 9.5t35.5 25.5l-113 118q-46 -21 -52 -66v-2q0 -36 25 -60.5z" />
    <glyph glyph-name="quotesingle" unicode="'" horiz-adv-x="222" 
d="M192 706v-246h-162v246h162z" />
    <glyph glyph-name="parenleft" unicode="(" horiz-adv-x="309" 
d="M264 -1q-72 138 -87 277q-4 33 -4 76q0 75 15 148q12 56 30 102t32.5 72t18.5 33v0l-109 76q-15 -21 -47 -87.5t-53 -161.5q-20 -86 -20 -182q0 -47 4 -86q18 -169 102 -329z" />
    <glyph glyph-name="parenright" unicode=")" horiz-adv-x="309" 
d="M265 266q4 39 4 86q0 96 -20 182q-21 95 -53 161.5t-47 87.5l-109 -76v0q0 -1 14 -23t34.5 -75t32.5 -109q15 -73 15 -148q0 -43 -4 -76q-15 -139 -87 -277l118 -62q84 160 102 329z" />
    <glyph glyph-name="asterisk" unicode="*" horiz-adv-x="405" 
d="M375 593l-84 -49l84 -48l-46 -78l-82 48v-88h-90v88l-82 -48l-45 78l83 48l-83 49l45 78l82 -48v88h90v-88l82 48z" />
    <glyph glyph-name="plus" unicode="+" horiz-adv-x="475" 
d="M40 292h395v127h-395v-127zM174 553v-395h127v395h-127z" />
    <glyph glyph-name="comma" unicode="," horiz-adv-x="263" 
d="M94 123h149l-74 -246h-149z" />
    <glyph glyph-name="hyphen" unicode="-" horiz-adv-x="383" 
d="M30 422h323v-142h-323v142z" />
    <glyph glyph-name="period" unicode="." horiz-adv-x="228" 
d="M47 29q-27 29 -27 69q0 38 27.5 65t65.5 27q39 0 67 -28t28 -67t-28 -67t-67 -28t-66 29z" />
    <glyph glyph-name="slash" unicode="/" horiz-adv-x="471" 
d="M177 -51l274 765h-158l-273 -765h157z" />
    <glyph glyph-name="zero" unicode="0" horiz-adv-x="623" 
d="M458 660q67 -48 106 -130t39 -179t-39 -179.5t-106 -130.5t-146 -48t-146 48t-106.5 130.5t-39.5 179.5t39.5 179t106.5 130t146 48t146 -48zM373 204.5q28 22.5 44 61.5t16 85t-16.5 84.5t-44 61.5t-60.5 23t-61 -23t-44.5 -61.5t-16.5 -84.5t16.5 -85t44.5 -61.5
t61 -22.5t61 22.5z" />
    <glyph glyph-name="one" unicode="1" horiz-adv-x="353" 
d="M226 707h87v-707h-185v500l-98 -31v176l98 31v0z" />
    <glyph glyph-name="two" unicode="2" horiz-adv-x="576" 
d="M556 174v-174h-516v158l105 80l147 111l54 41l5 3q15 13 23 30.5t8 36.5q0 30 -19 53q-13 15 -30 23t-36 8q-30 0 -53 -19q-19 -14 -27 -38h-177q9 62 45.5 113t92 80.5t120.5 29.5q50 0 94.5 -17.5t79.5 -49.5l7 -6q22 -21 42 -52q28 -51 28 -112q0 -51 -21 -100
t-65 -91q-20 -18 -31 -26l-85 -63l-25 -19v0h234z" />
    <glyph glyph-name="three" unicode="3" horiz-adv-x="568" 
d="M528 563l-116 -125q53 -33 84.5 -87t31.5 -117q0 -66 -34 -122t-92.5 -89t-127.5 -33t-127.5 33t-92.5 89t-34 122h163q0 -36 26.5 -61.5t64.5 -25.5q37 0 63.5 25.5t26.5 61.5v2q1 15 -9.5 40.5t-43.5 54.5q-28 25 -65 43v85l16 18l56 61l23 25h-297v138h484v-138z" />
    <glyph glyph-name="four" unicode="4" horiz-adv-x="676" 
d="M548 282h98v-151h-98v-131h-171v131h-357v38v113v15l332 409h25v1h171v-1v-424zM204 282h173v213z" />
    <glyph glyph-name="five" unicode="5" horiz-adv-x="548" 
d="M401.5 451q58.5 -33 92.5 -89t34 -122t-34 -122t-92.5 -89t-127.5 -33t-127.5 33t-92.5 89t-34 122h155q0 -40 29 -67.5t70 -27.5t70.5 27.5t29.5 67.5t-29.5 67.5t-70.5 27.5h-222l64 372h2h362v-151h-238l-13 -76q28 4 45 4q69 0 127.5 -33z" />
    <glyph glyph-name="six" unicode="6" horiz-adv-x="558" 
d="M425 434q48 -34 75.5 -85.5t27.5 -110.5q0 -66 -34 -122t-92.5 -89t-127.5 -33t-127.5 33t-92.5 89t-34 122q0 76 44 137l219 330h186l-151 -227q59 -10 107 -44zM344 170q29 28 29 68q0 39 -29 67t-70 28t-70.5 -28t-29.5 -67q0 -40 29.5 -68t70.5 -28t70 28z" />
    <glyph glyph-name="seven" unicode="7" horiz-adv-x="564" 
d="M413 700h111l-180 -707h-195l143 538h-272v169h376h17v0z" />
    <glyph glyph-name="eight" unicode="8" horiz-adv-x="523" 
d="M483.5 315q19.5 -43 19.5 -92q0 -63 -32.5 -116.5t-88 -84.5t-120.5 -31q-66 0 -121.5 31t-88 84.5t-32.5 116.5q0 49 19.5 92t54.5 75q-42 53 -42 120q0 54 28.5 100t76.5 73t105 27t105 -27t76 -73t28 -100q0 -68 -41 -120q34 -32 53.5 -75zM205 477q10 -15 26 -24
q16 -7 31 -7q13 0 31 7q16 8 25.5 23.5t9.5 33.5q0 26 -19.5 44.5t-46.5 18.5q-28 0 -47.5 -18.5t-19.5 -44.5q0 -18 10 -33zM328.5 158.5q27.5 26.5 27.5 64.5q0 31 -19 55t-49 32q-11 4 -26 4t-27 -4q-30 -8 -49 -32t-19 -55q0 -38 27.5 -64.5t67.5 -26.5q39 0 66.5 26.5z
" />
    <glyph glyph-name="nine" unicode="9" horiz-adv-x="588" 
d="M421.5 678q58.5 -33 92.5 -89t34 -122q0 -77 -44 -138l-219 -329h-186l151 227q-59 10 -107 44t-75.5 85.5t-27.5 110.5q0 66 34 122t92.5 89t127.5 33t127.5 -33zM224 399q29 -28 70 -28t70.5 28t29.5 68t-29.5 67.5t-70.5 27.5t-70 -27.5t-29 -67.5t29 -68z" />
    <glyph glyph-name="equal" unicode="=" horiz-adv-x="445" 
d="M40 368h365v117h-365v-117zM40 212h365v117h-365v-117z" />
    <glyph glyph-name="question" unicode="?" horiz-adv-x="565" 
d="M343.5 253q16.5 42 86.5 78q56 29 82 65.5t29.5 58t3.5 39.5q0 46 -19.5 88t-57.5 75q-38 32 -85.5 48.5t-99.5 16.5q-53 0 -100.5 -16.5t-85.5 -48.5q-38 -33 -57.5 -75t-19.5 -88v-13h177v13q0 30 25 51t60 21q36 0 62.5 -21.5t26.5 -50.5q0 -23 -28 -43q-7 -5 -32 -22
t-57 -51q-35 -37 -48 -82t-13 -85q0 -12 1 -19t1 -9h132q0 28 16.5 70zM348 58q0 24 -13.5 45.5t-36.5 31.5q-15 7 -34 7q-24 0 -45.5 -13.5t-31.5 -36.5q-7 -15 -7 -34q0 -25 13.5 -46t36.5 -31q15 -7 34 -7q24 0 45.5 13.5t31.5 36.5q7 15 7 34z" />
    <glyph glyph-name="A" unicode="A" horiz-adv-x="619" 
d="M408 700l231 -700h-174l-46 143h-219l-45 -143h-175l232 700h196zM247 289h126l-63 198z" />
    <glyph glyph-name="B" unicode="B" horiz-adv-x="616" 
d="M573 298.5q23 -43.5 23 -94.5q0 -55 -27 -101.5t-73.5 -74t-102.5 -28.5h-353v1v144v563h68h101h152q57 0 103 -28t72.5 -74t26.5 -100q0 -38 -14 -73.5t-39 -62.5q40 -28 63 -71.5zM386.5 541.5q-21.5 21.5 -51.5 21.5h-126h-4v-123v-22v-5h2h2h126q17 2 24 4t18 10
q15 11 23 27t8 35q0 31 -21.5 52.5zM416.5 168q21.5 22 20.5 53q0 27 -17 47.5t-43 25.5q-6 1 -142 1h-26h-4v-27v-123h4h17h139q30 1 51.5 23z" />
    <glyph glyph-name="C" unicode="C" horiz-adv-x="650" 
d="M448 181.5q34 14.5 60 39.5l122 -122q-50 -50 -115 -77.5t-138 -27.5q-97 0 -179 48t-130 130t-48 179t48 179.5t130 130.5t179 48q73 0 138 -27.5t115 -77.5l-122 -122q-26 25 -60 39.5t-71 14.5q-50 0 -92 -25t-67 -67.5t-25 -92.5t25 -92t67 -67t92 -25q37 0 71 14.5z
" />
    <glyph glyph-name="D" unicode="D" horiz-adv-x="691" 
d="M350 709.5q54 -5.5 106.5 -25.5t97.5 -61q56 -51 86.5 -121.5t30.5 -145.5q0 -89 -39 -163q-43 -82 -109.5 -125t-144 -56.5t-178.5 -13.5l-82 1q-26 1 -78 1v715h181q75 0 129 -5.5zM499 356q0 48 -24 90.5t-65.5 68.5t-90.5 27h-98v-369q72 0 123.5 8.5t93 39.5
t56.5 93q5 23 5 42z" />
    <glyph glyph-name="E" unicode="E" horiz-adv-x="561" 
d="M521 153v-153h-300v0h-181v707h181v0h291v-153h-291v-124h245v-153h-245v-124h300z" />
    <glyph glyph-name="F" unicode="F" horiz-adv-x="552" 
d="M532 554h-312v-124h250v-153h-250v-277h-180v707h180v0h312v-153z" />
    <glyph glyph-name="G" unicode="G" 
d="M735 350q0 -97 -48 -179t-130.5 -130t-179.5 -48t-179 48t-130 130t-48 179t48 179.5t130 130.5t179 48q74 0 139.5 -28t114.5 -78l-161 -92q-42 25 -93 25q-50 0 -92 -25t-67 -67.5t-25 -92.5t25 -92t67 -67t92 -25q53 0 97 27.5t68 73.5h-222v166h69h153h183
q10 -45 10 -83z" />
    <glyph glyph-name="H" unicode="H" horiz-adv-x="642" 
d="M422 707h180v-707h-180v264h-202v-264h-180v707h180v-263h202v263z" />
    <glyph glyph-name="I" unicode="I" horiz-adv-x="270" 
d="M225 707v-707h-180v707h180z" />
    <glyph glyph-name="J" unicode="J" horiz-adv-x="618" 
d="M411 709h167v-437q0 -76 -37.5 -140t-101.5 -101.5t-140 -37.5t-140 37.5t-101.5 101.5t-37.5 140v29h167q2 -58 32 -95.5t80 -37.5q49 0 80.5 41.5t31.5 102.5v397z" />
    <glyph glyph-name="K" unicode="K" horiz-adv-x="634" 
d="M383 357v0l211 -357h-200l-174 285v-285h-180v707h180v-276l174 276h200z" />
    <glyph glyph-name="L" unicode="L" horiz-adv-x="528" 
d="M220 170h278v-170h-458v0v180v527h180v-537z" />
    <glyph glyph-name="M" unicode="M" horiz-adv-x="805" 
d="M585 707h180v-707h-180v4v43v0v352v0l-88 -160l-4 -8h-180l-5 8l-12 23l-75 137v-352v-43v-4h-24h-157v707h181l182 -301z" />
    <glyph glyph-name="N" unicode="N" horiz-adv-x="649" 
d="M429 707h180v-707h-180l-208 379v-379h-181v707h181l208 -379v379z" />
    <glyph glyph-name="O" unicode="O" 
d="M557 659q82 -48 130 -130.5t48 -179.5t-48 -179t-130 -130t-179 -48t-179.5 48t-130.5 130t-48 179t48 179.5t130.5 130.5t179.5 48t179 -48zM470 190q42 25 67 67t25 92t-25 92.5t-67 67.5t-92 25t-92.5 -25t-67.5 -67.5t-25 -92.5t25 -92t67.5 -67t92.5 -25t92 25z" />
    <glyph glyph-name="P" unicode="P" horiz-adv-x="617" 
d="M487.5 677.5q50.5 -29.5 80 -80t29.5 -110.5t-29.5 -110.5t-80 -80t-110.5 -29.5h-168v-267h-169v707h337q60 0 110.5 -29.5zM418.5 538.5q-19.5 21.5 -47.5 23.5h-166v-150h166q28 2 47.5 24.5t19.5 51.5t-19.5 50.5z" />
    <glyph glyph-name="Q" unicode="Q" horiz-adv-x="754" 
d="M707 214.5q-27 -64.5 -75 -114.5l63 -100l-138 -86l-61 99q-58 -20 -119 -20q-97 0 -179 48t-130 130t-48 179t48 179.5t130 130.5t179 48t179 -48t130 -130.5t48 -179.5q0 -71 -27 -135.5zM217.5 258q24.5 -42 67 -67t92.5 -25t92.5 25t67 67t24.5 92t-24.5 92.5
t-67 67.5t-92.5 25t-92.5 -25t-67 -67.5t-24.5 -92.5t24.5 -92z" />
    <glyph glyph-name="R" unicode="R" horiz-adv-x="637" 
d="M617 0h-181l-112 267h-115v-267h-169v707h68h101h168q59 0 110 -29.5t80.5 -80.5t29.5 -110q0 -57 -27 -105.5t-73 -79.5zM418 538.5q-19 21.5 -47 23.5h-166v-150h166q28 3 47 24.5t19 51.5q0 29 -19 50.5z" />
    <glyph glyph-name="S" unicode="S" horiz-adv-x="556" 
d="M363 483v13q0 29 -24.5 49.5t-59.5 20.5q-36 0 -61.5 -20.5t-25.5 -49.5t26 -43q25 -17 68 -28q7 -1 15.5 -3t17.5 -4q107 -26 143 -59l9 -8q30 -29 47.5 -69t17.5 -80q0 -45 -19.5 -86t-56.5 -73q-37 -31 -84 -47.5t-98 -16.5t-97.5 16.5t-83.5 47.5q-37 32 -57 73
t-20 86v13h175v-13q0 -29 24.5 -49.5t58.5 -20.5q36 0 61.5 20.5t25.5 49.5q0 23 -27 44q-12 9 -28 15t-39 12l-33 8q-55 14 -86 25t-57 34l-4 4q-34 31 -52.5 70t-18.5 82q0 45 20 86t57 73q37 31 83.5 47.5t97.5 16.5t98 -16.5t84 -47.5q37 -32 56.5 -73t19.5 -86v-13
h-173z" />
    <glyph glyph-name="T" unicode="T" horiz-adv-x="603" 
d="M573 707v-180h-181v-527h-181v527h-181v180h181v0h181v0h181z" />
    <glyph glyph-name="U" unicode="U" horiz-adv-x="655" 
d="M615 706v-437q0 -76 -37.5 -140t-102 -101.5t-140.5 -37.5h-16q-76 0 -140 37.5t-101.5 101.5t-37.5 140v437h167v-397q0 -62 30 -103t82 -41h16q50 0 81.5 41.5t31.5 102.5v397h167z" />
    <glyph glyph-name="V" unicode="V" horiz-adv-x="721" 
d="M505 709h196l-231 -709h-22h-174h-24l-230 709h198l143 -442z" />
    <glyph glyph-name="W" unicode="W" horiz-adv-x="805" 
d="M609 707h156v-707h-180l-182 301l-183 -301h-180v707h180v-33v-14v-352v0l88 160l5 8h180l4 -8l88 -160v352v43v4h24z" />
    <glyph glyph-name="X" unicode="X" horiz-adv-x="681" 
d="M661 0h-209l-112 184l-111 -184h-209l216 357l-212 350h209l107 -177l107 177h210l-212 -350z" />
    <glyph glyph-name="Y" unicode="Y" horiz-adv-x="596" 
d="M416 699h180l-208 -411v-288h-180v288l-208 411h180l118 -233z" />
    <glyph glyph-name="Z" unicode="Z" horiz-adv-x="650" 
d="M610 709v-173l-326 -363h326v-173h-570v172v0v0v1h1l343 363h-333v173h559z" />
    <glyph glyph-name="bracketleft" unicode="[" horiz-adv-x="258" 
d="M20 -42h218v120h-92v514h92v117h-218v-751z" />
    <glyph glyph-name="backslash" unicode="\" horiz-adv-x="471" 
d="M294 -51h157l-273 765h-158z" />
    <glyph glyph-name="bracketright" unicode="]" horiz-adv-x="258" 
d="M238 -42v751h-218v-117h92v-514h-92v-120h218z" />
    <glyph glyph-name="underscore" unicode="_" horiz-adv-x="462" 
d="M20 142h422v-142h-422v142z" />
    <glyph glyph-name="a" unicode="a" horiz-adv-x="619" 
d="M408 700l231 -700h-174l-46 143h-219l-45 -143h-175l232 700h196zM247 289h126l-63 198z" />
    <glyph glyph-name="b" unicode="b" horiz-adv-x="616" 
d="M573 298.5q23 -43.5 23 -94.5q0 -55 -27 -101.5t-72.5 -74t-100.5 -28.5v0h-3h-353v1v144v563h68h101h152h3v0q54 0 100 -27.5t72.5 -73.5t26.5 -101q0 -38 -14 -73.5t-39 -62.5q40 -28 63 -71.5zM386.5 541.5q-21.5 21.5 -51.5 21.5v0h-126h-4v-123v-22v-5h2h2h126v0v0
q23 0 42 14q15 11 23 27t8 35q0 31 -21.5 52.5zM416.5 168q21.5 22 20.5 53q0 27 -17 47.5t-43 25.5q-4 1 -12 1v0h-130h-26h-4v-27v-123h4h17h139v0v0v0v0q30 1 51.5 23z" />
    <glyph glyph-name="c" unicode="c" horiz-adv-x="650" 
d="M448 181.5q34 14.5 60 39.5l122 -122q-50 -50 -115 -77.5t-138 -27.5q-97 0 -179 48t-130 130t-48 179t48 179.5t130 130.5t179 48q73 0 138 -27.5t115 -77.5l-122 -122q-26 25 -60 39.5t-71 14.5q-50 0 -92 -25t-67 -67.5t-25 -92.5t25 -92t67 -67t92 -25q37 0 71 14.5z
" />
    <glyph glyph-name="d" unicode="d" horiz-adv-x="691" 
d="M349 711.5q54 -5.5 106.5 -25.5t98.5 -61q56 -51 86.5 -121t30.5 -145q0 -87 -40 -164q-42 -82 -108.5 -124.5t-144 -56.5t-178.5 -14l-82 1q-26 1 -78 1v715h180q75 0 129 -5.5zM498 359q0 48 -24 90t-65 68t-90 27v0h-99v-369q73 0 124.5 8.5t92.5 39.5t56 93
q5 18 5 43z" />
    <glyph glyph-name="e" unicode="e" horiz-adv-x="561" 
d="M521 153v-153h-300v0h-181v707h181v0h291v-153h-291v-124h245v-153h-245v-124h300z" />
    <glyph glyph-name="f" unicode="f" horiz-adv-x="552" 
d="M532 554h-312v-124h250v-153h-250v-277h-180v707h180v0h312v-153z" />
    <glyph glyph-name="g" unicode="g" 
d="M735 350q0 -97 -48 -179t-130.5 -130t-179.5 -48t-179 48t-130 130t-48 179t48 179.5t130 130.5t179 48q74 0 139.5 -28t114.5 -78l-161 -92q-42 25 -93 25q-50 0 -92 -25t-67 -67.5t-25 -92.5t25 -92t67 -67t92 -25q53 0 97 27.5t68 73.5h-222v166h69h153h183v0v0
q10 -45 10 -83z" />
    <glyph glyph-name="h" unicode="h" horiz-adv-x="642" 
d="M422 707h180v-707h-180v264h-202v-264h-180v707h180v-263h202v263z" />
    <glyph glyph-name="i" unicode="i" horiz-adv-x="270" 
d="M225 707v-707h-180v707h180z" />
    <glyph glyph-name="j" unicode="j" horiz-adv-x="618" 
d="M411 709h167v-437q0 -76 -37.5 -140t-101.5 -101.5t-140 -37.5t-140 37.5t-101.5 101.5t-37.5 140v29h167q2 -58 32 -95.5t80 -37.5t81.5 41.5t31.5 102.5h-1v397z" />
    <glyph glyph-name="k" unicode="k" horiz-adv-x="634" 
d="M383 357v0l211 -357h-200l-174 285v-285h-180v707h180v-276l174 276h200z" />
    <glyph glyph-name="l" unicode="l" horiz-adv-x="528" 
d="M220 170h278v-170h-458v0v180v527h180v-537z" />
    <glyph glyph-name="m" unicode="m" horiz-adv-x="805" 
d="M585 707h180v-707h-180v4v43v0v352v0l-88 -160l-4 -8h-180l-5 8l-12 23l-75 137v-352v-43v-4h-24h-157v707h181l182 -301z" />
    <glyph glyph-name="n" unicode="n" horiz-adv-x="649" 
d="M429 707h180v-707h-180l-208 379v-379h-181v707h181l208 -379v379z" />
    <glyph glyph-name="o" unicode="o" 
d="M557 659q82 -48 130 -130.5t48 -179.5t-48 -179t-130 -130t-179 -48t-179.5 48t-130.5 130t-48 179t48 179.5t130.5 130.5t179.5 48t179 -48zM470 190q42 25 67 67t25 92t-25 92.5t-67 67.5t-92 25t-92.5 -25t-67.5 -67.5t-25 -92.5t25 -92t67.5 -67t92.5 -25t92 25z" />
    <glyph glyph-name="p" unicode="p" horiz-adv-x="617" 
d="M487.5 677.5q50.5 -29.5 80 -80t29.5 -110.5t-29.5 -110.5t-80 -80t-110.5 -29.5h-168v-267h-169v707h68h101h168q60 0 110.5 -29.5zM418.5 437q19.5 22 19.5 51t-19.5 50.5t-47.5 23.5v0h-1h-5h-5h-151h-4v-150h4h151h5h4h2v1q28 2 47.5 24z" />
    <glyph glyph-name="q" unicode="q" horiz-adv-x="754" 
d="M707 214.5q-27 -64.5 -75 -114.5l63 -100l-138 -86l-61 99q-58 -20 -119 -20q-97 0 -179 48t-130 130t-48 179t48 179.5t130 130.5t179 48t179 -48t130 -130.5t48 -179.5q0 -71 -27 -135.5zM217.5 258q24.5 -42 67 -67t92.5 -25t92.5 25t67 67t24.5 92t-24.5 92.5
t-67 67.5t-92.5 25t-92.5 -25t-67 -67.5t-24.5 -92.5t24.5 -92z" />
    <glyph glyph-name="r" unicode="r" horiz-adv-x="637" 
d="M617 0h-181l-112 267h-115v-267h-169v707h68h101h168q59 0 110 -29.5t80.5 -80.5t29.5 -110q0 -57 -27 -105.5t-73 -79.5zM418 538q-19 21 -47 23v1h-2h-5h-4h-151h-4v-150h4h150h6h4h2v0q28 3 47 24.5t19 51.5q0 29 -19 50z" />
    <glyph glyph-name="s" unicode="s" horiz-adv-x="556" 
d="M363 483v13q0 29 -24.5 49.5t-59.5 20.5q-36 0 -61.5 -20.5t-25.5 -49.5t26 -43h1q23 -16 67 -28q7 -1 15.5 -3t17.5 -4q51 -13 82 -23.5t57 -31.5l4 -4l12 -10h-1q31 -31 47 -68.5t16 -78.5q0 -45 -19.5 -86t-56.5 -73q-37 -31 -84 -47.5t-98 -16.5t-97.5 16.5
t-83.5 47.5q-37 32 -57 73t-20 86v13h175v-13q0 -29 24.5 -49.5t58.5 -20.5q36 0 61.5 20.5t25.5 49.5t-26 43l-1 1q-12 9 -28 15t-39 12l-33 8q-55 14 -86 25t-57 34l-4 3v0q-34 31 -52.5 70.5t-18.5 82.5q0 45 20 86t57 73q37 31 83.5 47.5t97.5 16.5t98 -16.5t84 -47.5
q37 -32 56.5 -73t19.5 -86v-13h-173z" />
    <glyph glyph-name="t" unicode="t" horiz-adv-x="603" 
d="M573 707v-180h-181v-527h-181v527h-181v180h181v0h181v0h181z" />
    <glyph glyph-name="u" unicode="u" horiz-adv-x="655" 
d="M615 706v-437q0 -76 -37.5 -140t-102 -101.5t-140.5 -37.5h-16q-76 0 -140 37.5t-101.5 101.5t-37.5 140v437h167v-397q0 -62 30 -103t82 -41h16q50 0 81.5 41.5t31.5 102.5v397h167z" />
    <glyph glyph-name="v" unicode="v" horiz-adv-x="721" 
d="M505 709h196l-231 -709h-22h-174h-24l-230 709h198l143 -442z" />
    <glyph glyph-name="w" unicode="w" horiz-adv-x="805" 
d="M609 707h156v-707h-180l-182 301l-183 -301h-180v707h180v-33v-14v-352v0l88 160l5 8h180l4 -8l88 -160v352v43v4h24z" />
    <glyph glyph-name="x" unicode="x" horiz-adv-x="681" 
d="M661 0h-209l-112 184l-111 -184h-209l216 357l-212 350h209l107 -177l107 177h210l-212 -350z" />
    <glyph glyph-name="y" unicode="y" horiz-adv-x="596" 
d="M416 699h180l-208 -411v-288h-180v288l-208 411h180l118 -233z" />
    <glyph glyph-name="z" unicode="z" horiz-adv-x="650" 
d="M610 709v-173l-326 -363h326v-173h-570v172v0v0v1h1l343 363h-333v173h559z" />
    <glyph glyph-name="arrowleft" unicode="&#x2190;" horiz-adv-x="697" 
d="M677 424v-120h-474v120h474zM222 566v0v-406l-202 203z" />
    <glyph glyph-name="arrowright" unicode="&#x2192;" horiz-adv-x="697" 
d="M20 424h474v-120h-474v120zM475 566l202 -203l-202 -203v406v0z" />
  </font>
</defs>
</svg>
